<?xml version="1.0" standalone="no"?>
<!DOCTYPE svg PUBLIC "-//W3C//DTD SVG 20010904//EN"
 "http://www.w3.org/TR/2001/REC-SVG-20010904/DTD/svg10.dtd">
<svg version="1.0" xmlns="http://www.w3.org/2000/svg"
 width="264.000000pt" height="264.000000pt" viewBox="0 0 264.000000 264.000000"
 preserveAspectRatio="xMidYMid meet">
<metadata>
Created by potrace 1.14, written by Peter Selinger 2001-2017
</metadata>
<g transform="translate(0.000000,264.000000) scale(0.100000,-0.100000)"
fill="#000000" stroke="none">
<path d="M940 2598 c-13 -48 -65 -237 -146 -530 -30 -109 -60 -221 -68 -250
-8 -29 -51 -186 -96 -348 -45 -162 -101 -367 -125 -455 -24 -88 -94 -342 -155
-565 -61 -223 -113 -412 -115 -422 -3 -14 14 -16 164 -17 l168 0 36 132 c56
207 169 619 242 882 36 132 81 296 100 365 19 69 64 233 100 365 89 321 181
657 215 783 l28 102 -168 0 -169 0 -11 -42z"/>
<path d="M1589 1848 c-251 -63 -390 -237 -377 -469 4 -59 11 -90 33 -133 68
-135 193 -200 550 -286 198 -47 265 -96 265 -193 0 -111 -90 -185 -230 -188
-146 -3 -250 51 -299 156 -12 25 -21 49 -21 54 0 5 -6 11 -12 13 -20 6 -327 3
-333 -4 -11 -11 25 -138 55 -199 72 -141 257 -266 425 -285 17 -2 40 -6 53 -9
25 -6 192 -7 232 -1 161 22 269 73 362 170 105 108 144 299 93 461 -24 76
-102 158 -189 199 -59 27 -282 96 -314 96 -25 1 -174 45 -224 68 -55 24 -106
74 -110 110 -5 43 11 92 40 119 46 42 90 55 187 56 73 0 99 -4 138 -23 54 -26
102 -78 111 -121 l6 -29 165 0 165 0 -6 38 c-34 214 -193 367 -424 408 -106
19 -251 15 -341 -8z"/>
</g>
</svg>
