<svg width="157" height="183" viewBox="0 0 157 183" fill="none" xmlns="http://www.w3.org/2000/svg">
<path d="M0 182.16L51.9768 0H76.2078L24.2311 182.16H0Z" fill="white"/>
<path d="M114.184 162.342C104.929 162.342 96.8847 160.863 90.0508 157.907C83.2169 154.951 77.8278 150.828 73.9032 145.538C69.9591 140.247 67.6551 134.16 66.9717 127.275H91.8276C92.511 130.173 93.7606 132.818 95.5569 135.21C97.3533 137.622 99.794 139.508 102.918 140.889C106.023 142.27 109.713 142.951 113.989 142.951C118.265 142.951 121.506 142.367 124.142 141.2C126.759 140.033 128.692 138.478 129.941 136.552C131.191 134.627 131.796 132.565 131.796 130.367C131.796 127.061 130.898 124.533 129.102 122.743C127.305 120.954 124.708 119.554 121.331 118.523C117.953 117.492 113.911 116.5 109.205 115.528C104.226 114.575 99.4425 113.369 94.815 111.91C90.1875 110.471 86.0481 108.643 82.3968 106.445C78.7455 104.247 75.8362 101.427 73.708 97.9846C71.5602 94.5421 70.5058 90.3605 70.5058 85.401C70.5058 79.3524 72.1264 73.9261 75.3676 69.1027C78.6089 64.2988 83.3145 60.4673 89.4455 57.6472C95.596 54.8271 102.938 53.4268 111.509 53.4268C123.654 53.4268 133.358 56.208 140.602 61.7704C147.846 67.3328 152.103 75.1514 153.333 85.1871H129.727C129.043 81.3362 127.11 78.341 123.927 76.2211C120.745 74.1011 116.547 73.0314 111.294 73.0314C106.042 73.0314 101.805 74.0233 98.9739 76.0266C96.1427 78.0298 94.7369 80.6749 94.7369 83.9618C94.7369 86.1595 95.596 88.085 97.3338 89.7382C99.052 91.3913 101.571 92.8111 104.89 93.9586C108.209 95.1256 112.271 96.2536 117.113 97.3622C124.845 98.8792 131.679 100.669 137.615 102.73C143.551 104.792 148.237 107.826 151.693 111.813C155.149 115.8 156.867 121.44 156.867 128.734C157.004 135.327 155.305 141.181 151.79 146.277C148.276 151.372 143.336 155.32 136.99 158.141C130.644 160.961 123.049 162.361 114.204 162.361L114.184 162.342Z" fill="white"/>
</svg>
