<?xml version="1.0" standalone="no"?>
<!DOCTYPE svg PUBLIC "-//W3C//DTD SVG 20010904//EN"
 "http://www.w3.org/TR/2001/REC-SVG-20010904/DTD/svg10.dtd">
<svg version="1.0" xmlns="http://www.w3.org/2000/svg"
 width="700.000000pt" height="700.000000pt" viewBox="0 0 700.000000 700.000000"
 preserveAspectRatio="xMidYMid meet">
<metadata>
Created by potrace 1.14, written by Peter Selinger 2001-2017
</metadata>
<g transform="translate(0.000000,700.000000) scale(0.100000,-0.100000)"
fill="#000000" stroke="none">
<path d="M2837 5683 c-3 -5 -296 -983 -651 -2175 -356 -1192 -649 -2174 -652
-2183 -5 -13 30 -15 300 -15 l305 0 22 73 c11 39 301 1013 644 2162 343 1150
627 2102 630 2118 l7 27 -300 0 c-166 0 -303 -3 -305 -7z"/>
<path d="M4067 4384 c-240 -37 -439 -134 -579 -282 -115 -122 -174 -258 -184
-427 -23 -362 203 -577 753 -714 65 -16 168 -39 228 -51 372 -72 503 -137 541
-267 50 -173 -57 -324 -265 -373 -78 -18 -272 -16 -351 4 -160 41 -273 128
-335 258 -19 40 -35 78 -35 85 0 10 -66 13 -315 13 l-314 0 5 -32 c35 -200
111 -353 236 -479 218 -217 537 -329 943 -329 244 0 437 37 601 114 168 80
288 181 369 311 157 253 134 625 -50 810 -131 131 -324 212 -685 290 -377 81
-548 135 -633 199 -122 92 -112 263 20 346 87 56 132 65 308 65 141 0 167 -3
220 -23 116 -43 197 -118 228 -212 l15 -45 296 -3 296 -2 -6 42 c-10 69 -68
233 -105 294 -132 219 -387 369 -704 413 -104 15 -391 12 -498 -5z"/>
</g>
</svg>
