<?xml version="1.0" standalone="no"?>
<!DOCTYPE svg PUBLIC "-//W3C//DTD SVG 20010904//EN"
 "http://www.w3.org/TR/2001/REC-SVG-20010904/DTD/svg10.dtd">
<svg version="1.0" xmlns="http://www.w3.org/2000/svg"
 width="232.000000pt" height="232.000000pt" viewBox="0 0 232.000000 232.000000"
 preserveAspectRatio="xMidYMid meet">
<metadata>
Created by potrace 1.14, written by Peter Selinger 2001-2017
</metadata>
<g transform="translate(0.000000,232.000000) scale(0.100000,-0.100000)"
fill="#000000" stroke="none">
<path d="M820 2316 c0 -3 -151 -531 -247 -861 -30 -104 -58 -203 -63 -220 -4
-16 -45 -158 -90 -315 -45 -157 -93 -323 -106 -370 -13 -47 -52 -186 -88 -310
l-64 -225 150 -3 c83 -1 153 -1 155 2 2 2 54 179 115 392 60 214 112 396 116
404 3 8 6 20 8 25 1 6 34 120 72 255 39 135 123 427 186 650 64 223 125 437
137 475 11 39 23 78 25 88 5 16 -7 17 -150 17 -86 0 -156 -2 -156 -4z"/>
<path d="M1540 1642 c-114 -11 -183 -28 -249 -59 -90 -43 -162 -112 -199 -191
-23 -49 -27 -70 -27 -152 0 -81 4 -102 25 -143 33 -66 88 -113 184 -157 82
-37 120 -49 320 -95 179 -41 231 -75 242 -154 10 -69 -19 -120 -91 -159 -23
-13 -56 -17 -135 -17 -89 0 -111 3 -145 22 -57 30 -101 77 -120 127 l-17 43
-151 0 c-84 0 -155 -1 -159 -3 -3 -2 0 -32 8 -66 39 -168 173 -294 369 -349
64 -18 107 -22 215 -23 148 0 222 14 320 62 73 35 164 126 196 197 49 107 37
287 -25 365 -69 87 -175 135 -416 189 -154 35 -234 63 -274 97 -59 50 -57 121
5 172 40 33 76 43 163 43 113 1 196 -42 223 -117 l12 -34 149 0 150 0 -7 43
c-18 116 -113 240 -225 296 -93 46 -240 74 -341 63z"/>
</g>
</svg>
